<svg xmlns="http://www.w3.org/2000/svg" viewBox="0 0 32 32" fill="none">
  <defs>
    <linearGradient id="pd" x1="0%" y1="0%" x2="100%" y2="100%">
      <stop offset="0%" stop-color="#00C8FF"/>
      <stop offset="45%" stop-color="#1A6EFF"/>
      <stop offset="100%" stop-color="#0A1A6E"/>
    </linearGradient>
  </defs>
  <rect width="32" height="32" rx="7" fill="#0B1426"/>
  <!-- P stem -->
  <rect x="4" y="4" width="3" height="24" rx="1.2" fill="url(#pd)"/>
  <!-- P bowl arc -->
  <path d="M7 4 Q16 4 16 10 Q16 16 7 16 Z" fill="url(#pd)"/>
  <!-- P bowl inner cutout -->
  <path d="M8 6.5 Q13.5 6.5 13.5 10 Q13.5 13.5 8 13.5 Z" fill="#0B1426"/>
  <!-- D stem -->
  <rect x="18" y="4" width="3" height="24" rx="1.2" fill="url(#pd)"/>
  <!-- D arc -->
  <path d="M21 4 C26.5 4 29.5 7.5 29.5 16 C29.5 24.5 26.5 28 21 28 L21 25.5 C24.5 25.5 27 22.5 27 16 C27 9.5 24.5 6.5 21 6.5 Z" fill="url(#pd)"/>
</svg>
